<svg xmlns="http://www.w3.org/2000/svg" fill="none" viewBox="0 0 1024 1024" height="1024" width="1024">
<rect fill="#455436" height="1024" width="1024"></rect>
<path fill="#FEFEFE" d="M553.988 108.626C567.374 101.986 581.997 98.3657 596.673 95.8933C608.523 94.8513 620.444 95.2575 632.33 95.7343L633.513 96.6173C637.133 96.9176 640.754 97.2354 644.356 97.624C678.688 103.787 711.572 120.83 733.718 148.168C750.637 166.818 759.291 191.03 765.896 214.889L766.567 216.108C770.47 232.956 773.101 250.122 773.719 267.412C773.508 288.41 769.869 309.196 764.748 329.506L763.883 330.566C763.706 331.643 763.37 333.762 763.211 334.839C754.046 361.931 740.5 388.192 719.643 408.183C705.073 423.442 686.459 434.303 666.838 441.756C666.926 455.125 656.313 466.622 643.438 469.112C642.767 501.59 643.12 534.085 643.12 566.58C655.43 566.916 667.774 573.521 672.86 585.088C678.318 597.627 684.834 611.632 680.437 625.495C677.558 636.516 668.604 644.286 663.5 654.194C658.255 664.013 650.061 671.66 643.473 680.472C644.127 702.107 651.279 723.458 648.63 745.163C644.674 759.221 627.508 762.841 614.828 760.739C619.791 782.285 617.354 806.197 604.514 824.653C594.784 839.947 577.017 847.929 559.657 850.666C549.484 852.256 539.312 849.872 529.705 846.746C517.13 862.057 498.287 872.459 478.295 872.972C464.167 873.713 449.455 869.192 438.965 859.514C432.042 862.269 425.755 866.667 418.302 868.044C397.975 872.159 375.635 867.568 359.405 854.375C353.171 849.448 348.755 842.613 345.7 835.355C337.47 835.902 329.223 836.185 321.046 835.072C319.262 834.366 317.496 833.695 315.713 833.041C303.139 827.779 292.542 818.101 286.467 805.862C277.566 789.279 275.906 769.923 277.813 751.485C278.891 743.485 282.776 736.297 286.52 729.286C289.981 722.875 291.5 715.705 293.619 708.8C288.586 703.166 284.383 696.031 276.877 693.435C265.31 688.861 255.367 679.236 251.905 667.121C249.627 657.514 252.206 647.748 253.548 638.193C254.996 628.922 258.864 619.72 265.84 613.239C275.5 604.568 288.109 599.764 300.878 598.245C299.818 577.53 297.381 556.584 300.79 535.939C304.64 508.565 315.872 481.81 335.175 461.73C352.994 442.816 375.9 429.111 400.448 420.864C434.073 410.232 470.913 408.272 504.909 418.462C528.451 425.42 549.484 439.23 566.474 456.785C574.81 466.481 581.609 477.377 587.914 488.468C588.514 488.786 589.733 489.422 590.351 489.739C590.421 483.064 590.492 476.406 590.563 469.748C584.487 466.675 578.377 462.878 575.092 456.679C571.631 451.399 572.514 444.864 572.408 438.877C558.456 431.442 544.522 423.548 533.007 412.598C515.788 397.004 501.254 378.302 491.081 357.392C477.006 327.086 468.811 294.026 467.416 260.648C468.14 227.128 475.31 192.938 492.9 164.063C507.982 140.751 529.016 120.989 553.988 108.626ZM564.937 124.821C523.806 142.941 496.397 184.637 490.322 228.506C487.62 244.965 487.32 261.69 488.556 278.308C489.474 282.388 489.88 286.573 490.304 290.741C495.691 321.17 506.905 350.875 525.095 376.006C543.568 399.848 568.293 420.793 598.245 427.839C597.627 429.146 597.026 430.453 596.408 431.778C595.031 434.709 593.689 437.676 592.24 440.573C591.764 445.341 594.536 449.12 597.874 452.14C602.501 452.511 607.146 452.617 611.791 452.335C611.738 499.47 612.621 546.641 611.561 593.742C608.258 595.72 605.097 597.91 602.042 600.241C601.494 600.329 600.382 600.506 599.834 600.594C599.446 596.744 599.004 592.93 598.227 589.15C597.645 586.201 597.097 583.234 596.444 580.302C595.013 572.602 593.088 565.008 591.11 557.432C586.783 540.407 581.026 523.771 574.138 507.629C573.732 506.693 572.902 504.839 572.496 503.903C566.898 491.876 559.904 480.415 550.932 470.595C527.215 443.805 490.799 430.082 455.372 431.054C431.089 431.866 406.505 436.776 384.836 448.096C359.016 461.624 336.64 483.664 326.804 511.515C325.991 513.74 325.214 515.965 324.402 518.19C322.088 526.279 320.446 534.509 319.033 542.791C316.066 569.318 322.477 595.508 322.583 621.963C313.593 618.908 303.916 618.696 294.573 619.809C284.895 621.857 275.094 627.915 272.727 638.176C273.257 641.231 274.158 644.268 274.193 647.394C272.321 651.227 269.707 654.988 270.431 659.492C270.255 668.11 278.326 673.32 285.443 676.075C286.485 676.181 288.569 676.393 289.593 676.499C296.269 685.241 304.657 692.358 313.805 698.363C314.159 707.405 312.322 716.359 310.114 725.083C308.066 733.631 302.008 740.289 298.123 747.988C295.615 756.024 295.121 764.448 296.021 772.784C296.763 775.768 297.311 778.806 297.805 781.861C299.854 788.819 302.008 795.919 306.211 801.924C312.905 812.008 324.755 819.231 337.135 818.03C345.294 818.101 352.623 813.774 358.486 808.458C358.84 819.778 362.866 831.205 370.884 839.381C382.363 850.331 399.565 853.916 414.806 850.455C426.144 847.417 434.515 838.145 439.407 827.849C443.804 840.423 454.241 851.302 467.504 854.234C476.405 855.7 485.854 855.241 494.154 851.408C508.989 845.492 519.091 831.646 524.106 816.9C528.08 824.494 535.692 828.732 543.48 831.54C550.103 832.123 556.831 832.688 563.436 831.523C576.346 828.803 587.154 819.619 592.823 807.822C593.636 805.597 594.413 803.372 595.243 801.164C595.808 798.745 596.444 796.343 597.15 793.976C599.481 781.42 594.43 769.305 595.101 756.766C595.402 742.69 595.19 728.544 597.062 714.557C597.945 705.586 597.309 696.526 598.916 687.625C603.278 685.435 607.658 683.21 611.949 680.879C614.122 694.989 615.517 709.206 617.671 723.317C618.749 729.516 619.437 735.785 621.009 741.896C623.853 741.896 626.696 741.754 629.557 741.525C630.687 731.14 627.897 720.95 626.802 710.707C625.866 706.045 625.636 701.294 625.124 696.596C624.118 691.934 623.853 687.166 623.446 682.415C622.846 679.378 622.44 676.305 622.087 673.232C633.142 664.772 643.367 654.494 649.248 641.708C651.739 632.312 662.123 627.297 663.324 617.354C664.666 610.89 660.71 605.098 655.677 601.548C655.712 600.435 655.747 598.228 655.765 597.133C653.734 592.117 649.584 588.638 644.78 586.43C639.306 586.183 633.831 586.166 628.374 586.642C626.89 587.225 623.906 588.373 622.422 588.938C622.281 542.297 622.705 495.673 622.404 449.032C625.619 449.844 628.833 450.639 632.012 451.61C634.449 451.752 636.904 451.875 639.358 451.999C641.902 450.268 644.904 448.997 646.811 446.507C649.195 439.372 642.997 433.809 640.259 427.857C642.855 427.557 645.451 427.239 648.065 426.921C668.975 422.824 688.543 412.563 703.572 397.446C717.683 383.653 729.091 367.158 736.721 348.95C752.403 314.141 757.136 274.67 750.778 237.071C747.441 218.192 740.712 200.09 733.118 182.536C720.614 158.252 699.298 138.932 674.609 127.47C640.171 112.777 599.764 109.439 564.937 124.821Z"></path>
<path fill="#FEFEFE" d="M640.453 845.421C647.447 842.684 656.012 843.673 661.646 848.883C669.169 855.435 671.324 865.519 675.315 874.208C679.642 882.332 687.589 889.837 685.629 899.939C684.304 912.019 672.366 918.536 661.522 920.496C657.001 924.982 652.145 929.326 646.069 931.534C637.381 934.518 630.281 941.759 620.691 941.847C611.949 947.658 602.395 953.556 591.393 952.497C584.735 953.133 579.278 949.035 574.986 944.461C574.598 945.15 573.821 946.545 573.432 947.234C573.573 952.815 571.896 958.66 566.544 961.362C557.467 966.131 543.815 966.696 536.963 957.848C532.16 952.179 531.453 944.532 529.104 937.75C527.638 947.093 531.241 957.901 524.866 965.954C519.267 973.036 509.678 973.583 501.395 974.131C496.68 973.036 491.876 973.389 487.214 974.396C476.511 975.544 465.509 975.897 455.036 973.001C446.842 972.824 438.612 974.007 430.4 972.877C424.219 970.422 418.02 965.301 411.256 969.133C399.476 970.581 387.238 967.614 377.719 960.497C364.703 961.68 351.334 958.342 340.95 950.289C337.859 950.113 334.786 949.954 331.713 949.777C328.711 948.523 325.726 947.305 322.724 946.086C315.059 942.748 306.9 940.134 300.313 934.801C294.573 929.927 286.591 930.103 280.145 926.677C266.652 920.408 257.486 904.566 261.054 889.749C265.292 874.702 276.312 861.439 290.617 855.011C302.662 850.013 317.196 853.81 326.397 862.746C334.662 871.718 347.625 872.919 357.497 879.471C362.919 883.338 369.507 884.504 375.953 885.44C383.865 886.641 390.646 891.957 398.77 892.08C408.466 892.345 417.79 895.135 427.309 896.654C444.387 897.255 461.306 899.904 478.348 900.963C491.735 898.738 505.21 896.054 518.879 896.972C526.596 898.244 532.884 892.61 539.948 890.526C544.681 889.396 549.396 888.213 554.129 887.065C577.406 886.305 597.079 872.936 618.078 864.636C618.89 864.247 620.532 863.47 621.345 863.099C625.248 855.099 632.188 848.706 640.453 845.421ZM641.213 867.214C645.964 875.85 651.368 884.133 656.719 892.433C658.361 892.257 661.664 891.939 663.306 891.762C659.138 883.038 654.6 874.473 649.443 866.296C647.588 862.623 643.65 866.349 641.213 867.214ZM289.487 878.658C284.259 883.798 279.632 890.456 279.491 898.067C279.279 906.756 287.862 914.085 296.375 913.255C303.721 913.343 310.733 905.484 308.172 898.102C306.229 894.464 302.203 891.957 298.158 891.409C296.127 891.656 291.112 890.667 292.136 894.376C290.953 898.756 297.275 898.862 299.695 900.946C300.913 905.608 294.291 907.445 291.253 904.937C286.891 902.412 287.138 896.301 288.904 892.257C292.048 886.711 296.869 881.219 303.668 880.725C305.328 884.31 306.741 888.018 308.737 891.462C311.386 892.292 313.399 891.55 314.777 889.237C315.625 882.791 311.598 875.621 305.222 873.696C299.589 871.682 293.514 874.738 289.487 878.658ZM625.054 882.826C626.149 891.356 631.977 898.067 635.438 905.679C627.349 899.71 619.579 893.087 610.113 889.361C608.965 891.815 606.404 894.482 608.311 897.308C612.762 906.209 616.93 915.251 620.974 924.346C623.288 923.375 625.583 922.35 627.897 921.361C625.742 915.604 623.305 909.988 621.151 904.248C628.639 908.964 635.738 916.946 645.451 915.18C645.61 911.471 645.487 907.639 643.367 904.425C639.306 897.255 635.721 889.784 631.464 882.738C629.327 882.632 627.173 882.667 625.054 882.826ZM324.79 888.478C321.558 900.328 312.887 910.694 312.816 923.286C315.059 923.604 317.285 923.94 319.545 924.258C321.099 919.789 322.689 915.321 324.26 910.853C327.793 911.948 331.307 913.026 334.857 914.032C333.656 920.001 331.307 925.706 330.583 931.799C332.243 931.975 335.563 932.311 337.241 932.47C341.691 921.767 346.159 910.942 349.038 899.692C350.027 896.319 345.789 896.142 343.899 894.729C341.709 899.038 339.749 903.471 337.824 907.922C334.274 906.491 330.707 905.167 327.121 903.877C329.629 899.18 331.395 894.076 331.148 888.672C329.559 888.636 326.38 888.531 324.79 888.478ZM659.191 895.294C659.297 897.696 659.456 900.098 659.65 902.5C662.052 902.041 666.132 903.136 666.732 899.798C666.75 898.65 666.768 896.336 666.785 895.189C664.242 895.171 661.717 895.206 659.191 895.294ZM591.764 897.202C592.947 907.586 600.417 916.452 599.322 927.225C596.638 927.119 593.106 928.973 591.216 926.306C586.342 919.101 585.212 910.112 580.885 902.623C577.953 901.988 575.163 903.666 575.746 906.897C577.017 915.092 579.913 923.11 583.869 930.386C589.803 939.481 606.528 935.737 607.534 924.699C606.987 914.827 602.713 905.432 597.574 897.131C595.614 897.06 593.689 897.078 591.764 897.202ZM364.332 904.407C354.831 906.88 350.786 917.476 350.416 926.377C349.692 937.468 363.555 947.234 373.357 940.858C382.204 935.119 384.041 923.251 381.922 913.644C379.273 906.827 371.538 902.341 364.332 904.407ZM542.403 911.736C543.762 923.41 547.824 934.501 550.579 945.874C551.498 946.58 553.317 947.958 554.217 948.647C555.277 947.94 557.396 946.527 558.456 945.821C557.502 940.964 556.337 936.161 555.012 931.41C558.65 930.227 562.412 929.309 565.82 927.542C565.997 925.441 566.103 923.357 566.138 921.273C561.811 921.856 557.626 923.039 553.511 924.364C552.557 921.873 551.639 919.383 550.738 916.911C555.471 915.533 560.204 914.174 564.902 912.655C564.16 910.447 564.619 907.321 561.97 906.385C555.242 907.321 548.69 909.211 542.403 911.736ZM395.768 913.962C390.205 917.052 388.968 925.37 393.489 929.909C397.339 933.9 402.373 936.479 406.77 939.834C406.682 940.505 406.541 941.847 406.452 942.536C405.94 943.172 404.88 944.444 404.368 945.079C403.309 944.991 401.225 944.832 400.165 944.761C397.181 941.441 393.648 938.633 388.915 938.951C387.326 952.073 409.119 957.318 414.046 945.627C416.907 935.454 406.311 929.909 399.724 924.682C399.724 923.11 399.724 921.52 399.741 919.966C401.719 919.948 403.715 919.984 405.728 920.019C408.13 923.798 411.662 926.183 416.271 925.865C417.207 915.233 404.315 909.688 395.768 913.962ZM511.691 916.505C509.413 922.068 507.258 927.684 505.227 933.335C501.112 927.648 498.922 917.564 490.234 918.235C490.022 919.33 489.598 921.52 489.386 922.615C493.271 929.061 497.828 935.066 501.695 941.512C503.002 946.722 502.384 952.285 503.92 957.495C506.305 957.035 508.671 956.523 511.055 955.94C510.755 950.784 508.812 945.432 510.72 940.399C513.174 932.399 518.278 925.194 518.649 916.628C516.318 916.558 514.005 916.522 511.691 916.505ZM422.453 923.48C426.62 924.258 430.824 924.893 435.045 925.441C433.702 935.808 433.173 946.263 433.543 956.718C435.257 956.859 438.683 957.141 440.396 957.283C442.038 946.739 441.756 936.055 442.409 925.441C445.623 925.918 448.837 926.395 452.069 926.871C452.687 925.865 453.941 923.834 454.559 922.827C453.906 921.785 452.599 919.719 451.946 918.677C442.868 918.465 433.808 917.882 424.854 916.346C424.024 918.712 423.23 921.079 422.453 923.48ZM461.906 957.3C470.489 959.702 479.549 958.713 488.203 957.194C488.167 955.216 488.15 953.256 488.114 951.313C482.198 950.324 476.211 951.101 470.313 951.631C470.083 941.159 470.083 930.651 468.299 920.302C466.657 920.302 463.354 920.302 461.712 920.302C461.182 932.629 461.941 944.973 461.906 957.3Z"></path>
<path fill="#1A121A" d="M564.937 124.821C599.764 109.439 640.171 112.777 674.609 127.47C699.298 138.932 720.614 158.252 733.118 182.535C740.712 200.09 747.441 218.192 750.779 237.071C757.136 274.67 752.403 314.141 736.721 348.95C729.091 367.158 717.683 383.653 703.572 397.446C688.543 412.563 668.975 422.824 648.065 426.921C645.451 427.239 642.855 427.557 640.259 427.857C642.997 433.809 649.196 439.372 646.811 446.507C644.904 448.997 641.902 450.268 639.359 451.999C636.904 451.875 634.449 451.752 632.012 451.61C628.833 450.639 625.619 449.844 622.405 449.032C622.705 495.673 622.281 542.297 622.422 588.938C623.906 588.373 626.89 587.225 628.374 586.642C633.831 586.166 639.306 586.183 644.78 586.43C649.584 588.638 653.734 592.117 655.765 597.133C655.747 598.228 655.712 600.435 655.677 601.548C660.71 605.098 664.666 610.89 663.324 617.354C662.123 627.297 651.739 632.312 649.249 641.708C643.368 654.494 633.142 664.772 622.087 673.232C622.44 676.305 622.846 679.378 623.446 682.415C623.853 687.166 624.118 691.934 625.124 696.596C625.636 701.294 625.866 706.045 626.802 710.707C627.897 720.95 630.687 731.14 629.557 741.525C626.696 741.754 623.853 741.896 621.009 741.896C619.438 735.785 618.749 729.516 617.672 723.317C615.517 709.206 614.122 694.989 611.949 680.879C607.658 683.21 603.278 685.435 598.916 687.625C597.309 696.526 597.945 705.586 597.062 714.557C595.19 728.544 595.402 742.69 595.101 756.766C594.43 769.305 599.481 781.42 597.15 793.976C596.444 796.343 595.808 798.745 595.243 801.164C594.413 803.372 593.636 805.597 592.823 807.822C587.154 819.619 576.346 828.803 563.436 831.522C556.831 832.688 550.103 832.123 543.48 831.54C535.692 828.732 528.08 824.494 524.106 816.9C519.091 831.646 508.989 845.492 494.154 851.408C485.854 855.241 476.405 855.7 467.505 854.234C454.242 851.302 443.804 840.423 439.407 827.849C434.515 838.145 426.144 847.417 414.806 850.455C399.565 853.916 382.363 850.331 370.884 839.381C362.866 831.205 358.84 819.778 358.486 808.458C352.623 813.774 345.294 818.101 337.135 818.03C324.755 819.231 312.905 812.008 306.211 801.924C302.008 795.919 299.854 788.819 297.805 781.861C297.311 778.806 296.763 775.768 296.021 772.784C295.121 764.448 295.615 756.024 298.123 747.988C302.008 740.289 308.066 733.63 310.114 725.083C312.322 716.359 314.159 707.405 313.805 698.363C304.657 692.358 296.269 685.241 289.593 676.499C288.569 676.393 286.485 676.181 285.443 676.075C278.326 673.32 270.255 668.11 270.431 659.492C269.707 654.988 272.321 651.227 274.193 647.394C274.158 644.268 273.257 641.231 272.727 638.176C275.094 627.915 284.895 621.857 294.573 619.809C303.916 618.696 313.594 618.908 322.583 621.963C322.477 595.508 316.066 569.317 319.033 542.791C320.446 534.509 322.088 526.279 324.402 518.19C325.214 515.965 325.991 513.74 326.804 511.515C336.64 483.664 359.016 461.624 384.836 448.096C406.505 436.776 431.089 431.866 455.372 431.054C490.799 430.082 527.215 443.805 550.933 470.595C559.904 480.415 566.898 491.876 572.496 503.903C572.902 504.839 573.732 506.693 574.138 507.629C581.026 523.771 586.783 540.407 591.11 557.432C593.088 565.008 595.013 572.602 596.444 580.302C597.097 583.234 597.645 586.201 598.227 589.15C599.004 592.93 599.446 596.744 599.834 600.594C600.382 600.506 601.495 600.329 602.042 600.241C605.097 597.91 608.259 595.72 611.561 593.742C612.621 546.641 611.738 499.47 611.791 452.335C607.146 452.617 602.501 452.511 597.874 452.14C594.536 449.12 591.764 445.341 592.24 440.573C593.689 437.676 595.031 434.709 596.408 431.778C597.026 430.453 597.627 429.146 598.245 427.839C568.293 420.793 543.568 399.848 525.095 376.006C506.905 350.875 495.691 321.17 490.304 290.741C489.88 286.573 489.474 282.388 488.556 278.308C487.32 261.69 487.62 244.965 490.322 228.506C496.397 184.637 523.806 142.941 564.937 124.821ZM590.21 128.883C552.522 137.007 521.387 167.012 508.954 203.11C496.309 237.248 496.75 275.288 507.029 309.973C517.148 346.584 538.146 381.622 570.412 402.673C584.911 412.439 602.113 418.674 619.702 418.78C652.957 419.451 686.194 403.645 706.468 377.242C727.237 351.776 737.869 319.263 740.853 286.856C744.456 256.498 738.381 225.592 726.478 197.618C715.899 170.933 693.859 149.687 667.969 137.819C643.668 127.452 616.206 123.779 590.21 128.883ZM609.283 427.098C607.534 432.873 605.274 438.453 603.773 444.299C608.647 443.328 613.062 440.943 617.795 439.495C624.1 439.954 630.228 441.827 636.551 442.197C633.919 437.27 631.182 432.413 628.815 427.363C622.299 427.38 615.782 427.292 609.283 427.098ZM403.521 452.599C385.083 459.293 368.73 471.143 355.625 485.625C337.7 506.658 328.958 534.862 330.23 562.324C329.947 581.962 334.557 601.23 334.857 620.833C335.175 623.57 334.398 627.509 337.7 628.727C344.782 632.736 351.528 637.275 357.851 642.414L357.921 643.068C359.387 645.169 360.782 647.324 362.178 649.496C352.199 652.286 344.57 644.357 335.793 641.478C325.144 634.926 312.905 630.087 300.242 630.158C300.807 630.829 301.955 632.153 302.52 632.825C302.379 634.149 302.114 636.763 301.973 638.087C297.24 638.317 293.249 635.95 289.134 634.043C286.079 635.615 284.807 638.741 284.259 641.937C286.803 643.403 290.07 644.11 291.889 646.6C292.436 648.878 291.218 650.997 290.476 653.081C287.156 653.787 283.871 654.653 280.604 655.589C280.48 660.905 284.683 663.624 288.957 665.602C291.465 665.602 293.955 665.673 296.463 665.832C299.942 673.479 306.777 678.724 313.823 682.892C335.651 695.784 364.155 700.323 387.556 689.003C394.885 685.347 403.273 677.523 398.929 668.622C394.143 665.196 388.88 662.6 383.741 659.792C391.035 659.227 398.452 661.735 403.485 667.121C408.625 671.801 407.936 679.943 405.94 685.947C398.205 700.87 379.979 704.932 364.685 706.822C351.687 706.61 338.636 705.815 326.044 702.318C324.437 716.394 322.583 731.176 314.6 743.308C311.404 748.589 306.847 753.746 307.289 760.351C306.865 776.616 311.121 796.184 326.362 804.855C338.46 811.743 353.842 802.718 357.233 790.109C360.835 776.334 364.791 762.505 366.646 748.359C368.217 744.845 369.259 741.119 370.531 737.498C370.831 738.293 371.396 739.865 371.679 740.642C369.418 753.516 369.895 766.656 368.941 779.654C368.023 790.303 368.677 801.023 370.16 811.584C371.802 821.615 377.083 831.929 386.796 836.185C396.615 840.441 408.96 842.755 418.444 836.397C427.468 829.562 431.407 818.242 434.356 807.734C438.294 790.78 441.084 773.526 446.418 756.907C446.948 756.307 448.007 755.088 448.52 754.47C448.873 758.037 448.837 761.658 449.367 765.225C446.418 778.011 446.294 791.292 446.524 804.361C447.018 817.094 450.233 831.434 461.482 839.01C473.438 847.646 490.64 843.797 500.6 833.854C511.038 824.547 515.311 810.648 517.855 797.349C520.927 780.837 524.23 764.36 527.162 747.83C527.462 747.353 528.08 746.364 528.38 745.887C531.047 752.298 530.04 759.326 529.917 766.073C528.751 773.473 529.281 781.031 529.246 788.502C529.493 797.985 530.676 808.582 537.723 815.628C546.235 823.505 559.71 822.516 569.282 817.182C578.748 811.584 583.763 800.935 585.883 790.515C588.708 780.307 582.721 770.488 583.092 760.262C583.234 737.357 587.137 714.663 587.578 691.758C574.968 695.837 561.458 696.826 548.513 693.7C540.884 689.868 533.29 682.892 533.466 673.709C533.113 669.011 535.127 664.454 538.341 661.134L542.915 657.832C541.043 661.77 539.612 665.92 539.188 670.265C542.014 676.799 547.012 682.857 554.341 684.34C569.847 687.643 585.547 681.744 599.287 674.945C619.544 664.861 636.533 647.96 645.028 626.838C649.019 624.736 651.597 621.01 654.034 617.336C653.275 615.747 652.463 614.14 651.756 612.568C647.323 612.462 642.59 614.44 638.387 612.533C636.48 607.499 641.195 604.179 644.251 601.053C643.933 600.029 643.297 597.98 642.979 596.974C637.328 596.144 632.789 599.746 628.127 602.272C627.067 600.877 626.043 599.499 625.018 598.122C624.418 598.793 623.217 600.117 622.616 600.771C622.034 604.85 621.045 608.842 619.914 612.815C617.318 612.868 614.705 612.868 612.126 612.815C611.897 609.601 611.702 606.369 611.526 603.173C596.709 613.928 587.243 630.758 571.189 639.924C570.854 640.348 570.2 641.231 569.865 641.655C569.759 640.86 569.547 639.253 569.441 638.458C571.066 635.827 573.22 633.372 574.227 630.44C578.995 624.736 583.958 619.155 589.15 613.84C587.225 591.587 583.039 569.565 576.328 548.249C571.013 530.8 565.008 513.334 555.436 497.687C543.303 476.476 523.983 459.204 500.936 450.78C469.712 439.124 434.532 441.509 403.521 452.599Z"></path>
<path fill="#C4CFCC" d="M590.209 128.883C616.206 123.779 643.668 127.452 667.969 137.819C693.859 149.687 715.899 170.933 726.478 197.618C738.381 225.592 744.456 256.498 740.853 286.856C737.869 319.263 727.237 351.776 706.468 377.242C686.194 403.645 652.957 419.451 619.702 418.78C602.113 418.674 584.911 412.439 570.412 402.673C538.146 381.622 517.148 346.584 507.029 309.973C496.75 275.288 496.309 237.248 508.954 203.11C521.387 167.012 552.522 137.007 590.209 128.883ZM551.586 162.473C530.941 178.05 520.486 203.569 517.696 228.682C515.152 250.705 515.029 273.399 520.08 295.103L521.793 293.955C518.72 296.534 518.985 301.037 521.616 303.828C529.334 339.837 546.306 374.893 573.414 400.307C579.79 407.159 589.75 406.294 598.263 407.212C623.164 409.561 649.46 406.205 671.43 393.684C692.552 379.803 706.08 357.056 714.115 333.55C724.094 303.156 731.582 271.014 727.749 238.855C724.04 214.836 714.539 191.313 698.38 172.964C680.984 152.654 654.617 141.846 628.497 138.843C600.894 135.011 573.397 146.208 551.586 162.473Z"></path>
<path fill="#FDFDFD" d="M551.586 162.473C573.397 146.208 600.894 135.011 628.497 138.843C654.617 141.846 680.984 152.654 698.38 172.964C714.539 191.313 724.04 214.836 727.749 238.855C731.581 271.014 724.093 303.157 714.115 333.55C706.08 357.056 692.552 379.803 671.43 393.684C649.46 406.205 623.164 409.561 598.262 407.212C589.75 406.294 579.79 407.159 573.414 400.307C546.305 374.893 529.334 339.837 521.616 303.828C537.157 309.444 557.626 309.249 569.087 295.704C561.617 286.75 549.025 285.708 538.252 287.35C532.301 288.092 526.667 290.494 521.793 293.955L520.08 295.103C515.029 273.399 515.152 250.705 517.695 228.682C520.486 203.569 530.941 178.05 551.586 162.473ZM650.838 219.322C650.343 221.83 649.796 224.32 649.178 226.793C649.107 229.848 649.089 232.885 649.107 235.958C650.873 246.131 655.129 256.851 665.178 261.372C668.286 261.407 671.412 261.39 674.538 261.319C675.456 260.771 677.293 259.676 678.211 259.129C680.101 256.798 681.956 254.431 683.739 252.012C687.095 239.42 685.752 224.956 678.07 214.183C674.803 209.291 669.116 207.013 663.447 206.501C657.619 208.885 652.975 213.353 650.838 219.322ZM559.692 218.068C552.275 221.424 549.449 230.06 548.319 237.53C547.259 248.55 549.007 261.531 558.191 268.878C564.46 273.964 574.545 272.463 579.03 265.716C586.836 254.255 585.883 238.378 579.083 226.669C575.41 220.082 567.268 214.872 559.692 218.068ZM685.364 275.288C679.73 277.037 670.07 279.491 671.642 287.174C678.282 293.743 688.613 293.585 697.285 292.737C704.066 291.554 711.731 290.264 716.658 285.019C719.519 282.476 716.288 278.962 713.903 277.619C705.25 272.886 694.724 273.081 685.364 275.288ZM598.333 311.386C588.532 316.367 583.516 327.528 583.657 338.177C583.781 346.778 586.554 356.632 594.854 360.765C600.912 357.639 603.031 350.345 608.965 347.06C616.488 342.787 625.53 341.285 634.043 342.893C641.372 345.895 646.652 352.8 654.617 354.513C659.986 355.608 665.549 352.253 667.492 347.219C671.677 333.956 666.114 317.974 653.628 311.263C636.692 302.415 615.287 302.733 598.333 311.386Z"></path>
<path fill="#FDFDFD" d="M425.455 448.131C442.533 444.317 460.635 441.721 477.783 446.648C503.779 454.489 524.813 473.315 540.972 494.561C559.339 518.614 568.31 548.496 571.33 578.307C573.432 595.614 572.584 613.098 574.227 630.44C573.22 633.372 571.065 635.827 569.441 638.458C569.547 639.253 569.759 640.86 569.865 641.655C570.2 641.231 570.854 640.348 571.189 639.924C587.242 630.758 596.708 613.928 611.526 603.173C611.702 606.369 611.896 609.601 612.126 612.815C614.704 612.868 617.318 612.868 619.914 612.815C621.045 608.842 622.034 604.85 622.616 600.771C623.217 600.117 624.418 598.793 625.018 598.122C626.042 599.499 627.067 600.877 628.126 602.272C632.789 599.747 637.327 596.144 642.979 596.974C643.297 597.98 643.933 600.029 644.25 601.053C641.195 604.179 636.48 607.499 638.387 612.533C642.59 614.44 647.323 612.462 651.756 612.568C652.463 614.14 653.275 615.747 654.034 617.336C651.597 621.01 649.019 624.736 645.028 626.838C638.14 630.97 633.266 637.434 627.332 642.679C609.459 658.644 587.331 671.13 563.065 673.002C556.354 673.338 548.69 673.355 543.268 668.781C540.672 665.267 543.957 660.375 543.656 656.49C542.332 657.655 539.683 659.969 538.341 661.134C535.126 664.454 533.113 669.011 533.466 673.709C533.29 682.892 540.884 689.868 548.513 693.7C556.796 698.575 566.721 697.02 575.851 697.003C574.933 708.094 574.774 719.22 574.227 730.328C572.902 749.137 570.889 767.927 571.118 786.824C570.977 793.411 571.171 800.829 566.686 806.215C562.606 811.089 555.524 811.708 549.696 810.454C543.851 809.005 541.166 802.895 539.612 797.667C536.151 785.146 535.303 772.095 531.877 759.574C531.188 761.711 530.517 763.883 529.917 766.073C530.04 759.327 531.047 752.298 528.38 745.887C528.08 746.364 527.462 747.353 527.162 747.83C514.375 768.439 512.98 793.835 501.624 815.134C497.068 823.646 488.556 831.187 478.313 830.587C470.101 831.063 462.56 825.624 459.169 818.366C451.345 801.659 455.089 782.444 449.367 765.225C448.837 761.658 448.873 758.037 448.519 754.47C448.007 755.088 446.948 756.307 446.418 756.907C443.998 759.874 442.091 763.247 440.625 766.797C433.914 783.133 429.164 800.299 421.252 816.14C418.32 821.739 414.452 828.114 407.688 829.333C400.059 830.64 392.2 827.16 386.902 821.756C380.544 815.134 378.089 805.88 377.048 796.996C375.652 783.645 375.281 770.205 375.211 756.783C375.334 751.185 373.904 745.728 371.679 740.642C371.396 739.865 370.831 738.293 370.531 737.498C369.259 741.119 368.217 744.845 366.646 748.359C357.321 762.965 354.177 780.978 342.716 794.294C338.247 800.37 327.633 798.656 325.267 791.539C322.494 783.133 323.589 774.055 324.825 765.472C328.411 745.551 336.587 726.867 341.956 707.422C350.928 707.846 359.917 708.094 368.906 707.652C367.846 707.44 365.727 707.034 364.685 706.822C379.979 704.932 398.205 700.87 405.94 685.947C407.936 679.943 408.624 671.801 403.485 667.121C398.452 661.735 391.035 659.227 383.741 659.792C388.88 662.6 394.143 665.196 398.929 668.622C389.145 678.247 375.211 681.885 361.824 682.168C346.46 682.751 330.706 681.197 316.49 675.033C309.726 672.137 303.845 667.121 296.463 665.832C293.955 665.673 291.465 665.602 288.957 665.602C284.683 663.624 280.48 660.905 280.604 655.589C283.871 654.653 287.156 653.788 290.476 653.081C291.218 650.997 292.436 648.878 291.889 646.6C290.07 644.11 286.802 643.403 284.259 641.937C284.807 638.741 286.078 635.615 289.134 634.043C293.249 635.951 297.24 638.317 301.973 638.087C313.205 639.5 324.437 641.302 335.793 641.478C344.57 644.357 352.199 652.286 362.177 649.496C360.782 647.324 359.387 645.169 357.921 643.068L357.851 642.414C357.374 628.957 352.252 616.33 350.345 603.102C346.442 582.457 345.188 561.264 347.29 540.337C350.168 517.749 360.146 495.991 376.041 479.602C389.834 465.633 406.382 453.624 425.455 448.131ZM529.298 531.454C525.961 535.18 522.87 539.153 520.38 543.498C511.991 543.886 502.719 546.094 497.969 553.706C495.267 556.92 497.103 560.999 498.869 564.143C503.073 563.719 504.998 560.081 506.834 556.761C511.673 554.624 517.201 553.582 522.393 555.136C528.309 557.45 532.866 562.059 538.235 565.344C539.418 564.638 541.767 563.207 542.95 562.501C543.639 556.125 537.758 552.787 533.078 549.979C535.815 549.273 538.976 549.432 541.325 547.683C541.396 545.811 541.361 543.939 541.237 542.067C536.751 541.414 532.371 542.262 528.274 544.063C530.429 541.414 532.548 538.73 534.65 536.028C534.367 535.003 533.82 532.955 533.555 531.913C532.124 531.754 530.711 531.595 529.298 531.454ZM380.12 550.633C380.686 552.558 379.29 555.737 381.215 556.991C381.904 557.927 383.282 559.799 383.97 560.735C382.593 561.794 381.251 562.871 379.908 563.966C379.167 564.796 377.648 566.457 376.906 567.287C376.995 568.064 377.171 569.6 377.242 570.36C381.321 571.243 385.472 571.719 389.657 571.613C387.132 576.452 387.008 581.909 389.392 586.872C391.37 586.819 393.348 586.766 395.344 586.695C397.163 579.667 399.476 571.896 406.205 567.975C411.733 564.284 418.108 567.958 423.812 569.176C424.484 567.869 425.808 565.273 426.479 563.984C424.236 561.264 422.064 558.209 418.744 556.761C412.704 554.871 406.541 556.796 400.642 558.191C393.754 555.772 387.856 549.873 380.12 550.633ZM540.566 575.34C534.42 577.512 525.572 581.256 526.473 589.186C530.694 594.183 537.74 593.707 543.656 593.742C551.551 593.866 559.745 591.605 565.626 586.148C569.07 583.481 568.434 577.318 564.248 575.728C556.796 572.602 548.213 573.291 540.566 575.34ZM469.659 592.806C459.345 593.336 449.032 593.813 438.718 593.636C431.954 597.875 436.122 607.199 435.504 613.769C437.605 622.299 439.866 631.094 445.341 638.176C449.579 644.586 457.032 647.324 464.043 649.567C477.518 651.174 493.801 646.458 499.346 632.878C504.38 618.996 502.066 603.861 499.594 589.698C495.39 589.609 491.187 589.927 487.037 590.422C481.315 591.746 475.399 591.676 469.659 592.806ZM376.606 600.541C370.601 601.672 362.389 604.78 362.301 612.038C363.59 614.705 366.398 616.135 369.03 617.177C378.372 620.815 389.057 620.003 398.293 616.471C402.638 614.829 407.194 610.696 405.022 605.592C397.64 598.316 386.054 599.588 376.606 600.541Z"></path>
<path fill="#19121B" d="M650.838 219.322C652.975 213.353 657.62 208.885 663.447 206.501C669.117 207.013 674.803 209.291 678.07 214.183C685.753 224.956 687.095 239.42 683.739 252.012C681.956 254.431 680.101 256.798 678.212 259.129C677.293 259.676 675.457 260.771 674.538 261.319C671.412 261.39 668.286 261.407 665.178 261.372C655.129 256.851 650.873 246.131 649.107 235.958C649.09 232.886 649.107 229.848 649.178 226.793C649.796 224.32 650.343 221.83 650.838 219.322Z"></path>
<path fill="#19111B" d="M559.692 218.068C567.269 214.872 575.41 220.082 579.083 226.669C585.883 238.378 586.836 254.255 579.03 265.716C574.545 272.463 564.461 273.964 558.191 268.878C549.008 261.531 547.259 248.55 548.319 237.53C549.449 230.06 552.275 221.424 559.692 218.068Z"></path>
<path fill="#1A121B" d="M529.298 531.453C530.711 531.595 532.124 531.754 533.555 531.913C533.82 532.955 534.367 535.003 534.65 536.027C532.548 538.729 530.429 541.414 528.274 544.063C532.371 542.262 536.751 541.414 541.237 542.067C541.361 543.939 541.396 545.811 541.325 547.683C538.976 549.432 535.815 549.273 533.078 549.979C537.758 552.787 543.639 556.125 542.95 562.501C541.767 563.207 539.418 564.637 538.235 565.344C532.866 562.059 528.31 557.45 522.393 555.136C517.201 553.582 511.673 554.624 506.834 556.761C504.998 560.081 503.073 563.719 498.87 564.143C497.103 560.999 495.267 556.92 497.969 553.706C502.719 546.094 511.991 543.886 520.38 543.498C522.87 539.153 525.961 535.18 529.298 531.453Z"></path>
<path fill="#E4B8B6" d="M685.364 275.288C694.724 273.081 705.25 272.886 713.903 277.619C716.288 278.962 719.519 282.476 716.658 285.019C711.731 290.264 704.066 291.554 697.285 292.737C688.613 293.585 678.282 293.743 671.642 287.174C670.07 279.491 679.73 277.037 685.364 275.288Z"></path>
<path fill="#E2B4AD" d="M376.606 600.541C386.054 599.588 397.64 598.316 405.022 605.592C407.194 610.696 402.638 614.829 398.293 616.471C389.057 620.003 378.372 620.815 369.03 617.177C366.398 616.135 363.59 614.705 362.301 612.038C362.389 604.78 370.601 601.672 376.606 600.541Z"></path>
<path fill="#E1B2AF" d="M521.793 293.955C526.667 290.494 532.301 288.092 538.252 287.35C549.025 285.708 561.617 286.75 569.088 295.704C557.626 309.249 537.157 309.444 521.616 303.828C518.985 301.037 518.72 296.534 521.793 293.955Z"></path>
<path fill="#18111A" d="M598.333 311.386C615.287 302.733 636.692 302.415 653.628 311.263C666.114 317.974 671.677 333.956 667.492 347.219C665.549 352.253 659.986 355.608 654.617 354.513C646.652 352.8 641.372 345.895 634.043 342.893C625.53 341.285 616.488 342.787 608.965 347.06C603.031 350.345 600.912 357.639 594.854 360.765C586.554 356.632 583.781 346.778 583.657 338.177C583.516 327.528 588.532 316.367 598.333 311.386ZM657.39 323.219C656.683 330.954 655.465 339.06 649.125 344.341C651.862 347.467 656.489 350.169 660.445 347.361C664.984 339.855 662.441 329.859 657.39 323.219Z"></path>
<path fill="#18111A" d="M469.659 592.806C475.399 591.676 481.315 591.746 487.037 590.422C491.187 589.927 495.39 589.609 499.594 589.698C502.066 603.861 504.38 618.996 499.346 632.877C493.801 646.458 477.518 651.174 464.043 649.567C457.032 647.324 449.579 644.586 445.341 638.176C439.866 631.094 437.605 622.299 435.504 613.769C436.122 607.199 431.954 597.874 438.718 593.636C449.032 593.812 459.345 593.336 469.659 592.806ZM451.027 635.085C455.601 642.326 464.696 643.968 472.661 643.474C480.768 643.421 488.944 639.518 493.183 632.454C479.302 628.904 464.202 628.992 451.027 635.085Z"></path>
<path fill="#C14E66" d="M657.39 323.219C662.441 329.859 664.984 339.855 660.445 347.361C656.489 350.169 651.862 347.467 649.125 344.341C655.465 339.06 656.683 330.954 657.39 323.219Z"></path>
<path fill="#FDFEFD" d="M363.202 936.691C354.636 929.008 358.645 910.694 371.273 910.606C378.902 918.995 374.557 934.342 363.202 936.691Z"></path>
<path fill="#C7CDCE" d="M609.283 427.098C615.782 427.292 622.299 427.38 628.815 427.363C631.182 432.413 633.919 437.27 636.551 442.197C630.228 441.827 624.1 439.954 617.795 439.495C613.062 440.943 608.647 443.328 603.773 444.299C605.274 438.453 607.534 432.873 609.283 427.098Z"></path>
<path fill="#C5D0CE" d="M403.521 452.599C434.532 441.509 469.712 439.125 500.936 450.78C523.983 459.204 543.303 476.476 555.436 497.687C565.008 513.334 571.013 530.8 576.328 548.249C583.039 569.565 587.225 591.587 589.15 613.84C583.958 619.155 578.995 624.736 574.227 630.44C572.584 613.098 573.432 595.614 571.33 578.307C568.311 548.496 559.339 518.614 540.972 494.561C524.813 473.315 503.779 454.489 477.783 446.648C460.635 441.721 442.533 444.317 425.455 448.131C406.382 453.624 389.834 465.633 376.041 479.602C360.147 495.991 350.168 517.749 347.29 540.337C345.188 561.264 346.442 582.457 350.345 603.102C352.252 616.33 357.374 628.957 357.851 642.414C351.528 637.275 344.782 632.736 337.7 628.727C334.398 627.509 335.175 623.57 334.857 620.833C334.557 601.23 329.947 581.962 330.23 562.324C328.958 534.862 337.7 506.658 355.625 485.625C368.73 471.143 385.083 459.293 403.521 452.599Z"></path>
<path fill="#1C131D" d="M380.121 550.633C387.856 549.873 393.754 555.772 400.642 558.191C406.541 556.796 412.704 554.871 418.744 556.761C422.064 558.209 424.236 561.264 426.479 563.984C425.808 565.273 424.484 567.869 423.813 569.176C418.108 567.958 411.733 564.284 406.205 567.975C399.476 571.896 397.163 579.666 395.344 586.695C393.348 586.766 391.37 586.819 389.392 586.872C387.008 581.909 387.132 576.452 389.657 571.613C385.472 571.719 381.321 571.242 377.242 570.359C377.171 569.6 376.995 568.064 376.906 567.286C377.648 566.456 379.167 564.796 379.909 563.966C384.253 563.154 388.686 562.977 393.101 562.783C389.074 560.964 385.083 559.092 381.215 556.99C379.29 555.737 380.686 552.558 380.121 550.633Z"></path>
<path fill="#C0CCC8" d="M381.215 556.99C385.083 559.092 389.074 560.964 393.101 562.783C388.686 562.977 384.253 563.154 379.909 563.966C381.251 562.871 382.593 561.794 383.97 560.734C383.282 559.798 381.904 557.926 381.215 556.99Z"></path>
<path fill="#C0CCC8" d="M371.679 740.642C373.904 745.728 375.334 751.185 375.211 756.783C375.281 770.205 375.652 783.645 377.047 796.996C378.089 805.879 380.544 815.133 386.902 821.756C392.2 827.16 400.059 830.639 407.688 829.332C414.452 828.114 418.32 821.738 421.252 816.14C429.164 800.299 433.914 783.133 440.625 766.797C442.091 763.247 443.998 759.874 446.418 756.907C441.084 773.525 438.294 790.78 434.356 807.734C431.406 818.242 427.468 829.562 418.444 836.397C408.96 842.754 396.615 840.441 386.796 836.185C377.083 831.929 371.802 821.615 370.16 811.584C368.676 801.023 368.023 790.303 368.941 779.654C369.895 766.655 369.418 753.516 371.679 740.642Z"></path>
<path fill="#E4B5AF" d="M540.566 575.34C548.213 573.291 556.796 572.602 564.249 575.728C568.434 577.318 569.07 583.481 565.626 586.148C559.745 591.605 551.551 593.866 543.656 593.742C537.74 593.707 530.694 594.183 526.473 589.186C525.572 581.256 534.42 577.512 540.566 575.34Z"></path>
<path fill="#C4D1CD" d="M627.332 642.679C633.266 637.434 638.14 630.97 645.028 626.838C636.533 647.96 619.544 664.861 599.287 674.945C585.547 681.744 569.847 687.643 554.341 684.34C547.012 682.857 542.014 676.799 539.188 670.265C539.612 665.92 541.043 661.77 542.915 657.832L538.341 661.134C539.683 659.969 542.332 657.655 543.657 656.49C543.957 660.375 540.672 665.267 543.268 668.781C548.69 673.355 556.354 673.338 563.065 673.002C587.331 671.13 609.459 658.644 627.332 642.679Z"></path>
<path fill="#D8D8DC" d="M300.242 630.158C312.905 630.087 325.143 634.926 335.793 641.478C324.437 641.302 313.205 639.5 301.973 638.087C302.114 636.763 302.379 634.149 302.52 632.824C301.955 632.153 300.807 630.829 300.242 630.158Z"></path>
<path fill="#C45065" d="M451.027 635.085C464.202 628.992 479.302 628.904 493.183 632.454C488.944 639.518 480.768 643.421 472.661 643.474C464.697 643.968 455.601 642.326 451.027 635.085Z"></path>
<path fill="#C5D1CD" d="M296.463 665.832C303.845 667.121 309.726 672.137 316.49 675.033C330.706 681.197 346.46 682.751 361.824 682.168C375.211 681.885 389.145 678.247 398.929 668.622C403.273 677.523 394.885 685.347 387.556 689.002C364.155 700.323 335.651 695.784 313.823 682.892C306.777 678.724 299.942 673.479 296.463 665.832Z"></path>
<path fill="#C5CFCC" d="M548.513 693.7C561.458 696.826 574.969 695.837 587.578 691.758C587.137 714.663 583.234 737.357 583.092 760.262C582.721 770.488 588.708 780.307 585.883 790.515C583.763 800.935 578.748 811.584 569.282 817.182C559.71 822.516 546.235 823.505 537.723 815.628C530.676 808.582 529.493 797.985 529.246 788.502C529.281 781.031 528.751 773.473 529.917 766.073C530.517 763.883 531.188 761.711 531.877 759.574C535.303 772.095 536.151 785.146 539.612 797.667C541.166 802.895 543.851 809.005 549.696 810.454C555.524 811.707 562.606 811.089 566.686 806.215C571.172 800.829 570.977 793.411 571.119 786.824C570.889 767.927 572.902 749.136 574.227 730.328C574.774 719.22 574.933 708.094 575.852 697.003C566.721 697.02 556.796 698.574 548.513 693.7Z"></path>
<path fill="#C1CDC9" d="M326.044 702.318C338.636 705.815 351.687 706.61 364.685 706.822C365.727 707.034 367.847 707.44 368.906 707.652C359.917 708.093 350.928 707.846 341.956 707.422C336.587 726.866 328.411 745.551 324.826 765.472C323.589 774.055 322.494 783.133 325.267 791.539C327.634 798.656 338.248 800.369 342.716 794.294C354.177 780.978 357.321 762.964 366.646 748.359C364.791 762.505 360.835 776.333 357.233 790.109C353.842 802.718 338.459 811.743 326.362 804.855C311.121 796.184 306.865 776.616 307.289 760.351C306.847 753.746 311.404 748.589 314.6 743.308C322.583 731.176 324.437 716.394 326.044 702.318Z"></path>
<path fill="#C0CDCA" d="M501.625 815.134C512.98 793.835 514.375 768.439 527.162 747.83C524.23 764.36 520.927 780.837 517.855 797.35C515.311 810.648 511.038 824.547 500.6 833.854C490.64 843.797 473.438 847.647 461.482 839.011C450.233 831.434 447.018 817.094 446.524 804.361C446.294 791.292 446.418 778.011 449.367 765.225C455.089 782.444 451.345 801.659 459.169 818.366C462.56 825.624 470.101 831.063 478.313 830.587C488.556 831.187 497.068 823.646 501.625 815.134Z"></path>
<path fill="#AA6913" d="M641.213 867.214C643.65 866.349 647.588 862.623 649.443 866.296C654.6 874.473 659.138 883.038 663.306 891.762C661.664 891.939 658.361 892.257 656.719 892.434C651.368 884.133 645.964 875.85 641.213 867.214Z"></path>
<path fill="#AF6D13" d="M289.487 878.658C293.514 874.738 299.589 871.682 305.222 873.695C311.598 875.62 315.625 882.791 314.777 889.237C313.399 891.55 311.386 892.292 308.737 891.462C306.741 888.018 305.328 884.309 303.668 880.724C296.869 881.219 292.048 886.711 288.904 892.257C287.138 896.301 286.891 902.411 291.253 904.937C294.291 907.445 300.913 905.608 299.695 900.946C297.275 898.862 290.953 898.756 292.136 894.376C291.112 890.667 296.127 891.656 298.158 891.409C302.203 891.956 306.229 894.464 308.172 898.102C310.733 905.484 303.721 913.343 296.375 913.255C287.862 914.085 279.279 906.756 279.491 898.067C279.632 890.455 284.26 883.797 289.487 878.658Z"></path>
<path fill="#B07416" d="M625.054 882.826C627.173 882.667 629.327 882.632 631.464 882.738C635.721 889.784 639.306 897.255 643.368 904.425C645.487 907.639 645.61 911.471 645.451 915.18C635.738 916.946 628.639 908.964 621.151 904.248C623.305 909.988 625.742 915.604 627.897 921.361C625.583 922.35 623.288 923.375 620.974 924.346C616.93 915.251 612.762 906.209 608.311 897.308C606.404 894.482 608.965 891.815 610.113 889.36C619.579 893.087 627.349 899.71 635.438 905.679C631.977 898.067 626.149 891.356 625.054 882.826Z"></path>
<path fill="#AD6D17" d="M324.79 888.478C326.38 888.531 329.559 888.637 331.148 888.672C331.395 894.076 329.629 899.18 327.121 903.878C330.706 905.167 334.274 906.491 337.824 907.922C339.749 903.471 341.709 899.039 343.899 894.729C345.789 896.142 350.027 896.319 349.038 899.692C346.159 910.942 341.691 921.768 337.241 932.47C335.563 932.311 332.243 931.975 330.583 931.799C331.307 925.706 333.656 920.002 334.857 914.032C331.307 913.026 327.793 911.948 324.26 910.853C322.689 915.322 321.099 919.79 319.545 924.258C317.285 923.94 315.059 923.604 312.816 923.286C312.887 910.694 321.558 900.328 324.79 888.478Z"></path>
<path fill="#AD600E" d="M659.191 895.294C661.717 895.206 664.242 895.171 666.785 895.188C666.768 896.336 666.75 898.65 666.732 899.798C666.132 903.136 662.052 902.041 659.65 902.5C659.456 900.098 659.297 897.696 659.191 895.294Z"></path>
<path fill="#B67516" d="M591.764 897.202C593.689 897.078 595.614 897.06 597.574 897.131C602.713 905.431 606.987 914.827 607.534 924.699C606.528 935.737 589.803 939.481 583.869 930.386C579.913 923.11 577.017 915.092 575.746 906.897C575.163 903.665 577.953 901.988 580.885 902.623C585.212 910.111 586.342 919.101 591.216 926.306C593.106 928.973 596.638 927.119 599.322 927.225C600.417 916.452 592.947 907.586 591.764 897.202Z"></path>
<path fill="#AF6C14" d="M364.332 904.407C371.537 902.341 379.273 906.827 381.922 913.644C384.041 923.251 382.204 935.119 373.356 940.859C363.555 947.234 349.691 937.468 350.416 926.377C350.786 917.476 354.831 906.88 364.332 904.407ZM363.202 936.691C374.557 934.342 378.902 918.995 371.273 910.606C358.645 910.694 354.636 929.008 363.202 936.691Z"></path>
<path fill="#B07014" d="M542.403 911.736C548.69 909.211 555.242 907.321 561.97 906.385C564.619 907.321 564.16 910.447 564.902 912.655C560.204 914.173 555.471 915.533 550.738 916.911C551.639 919.383 552.557 921.873 553.511 924.363C557.626 923.039 561.811 921.856 566.138 921.273C566.103 923.357 565.997 925.441 565.82 927.542C562.412 929.308 558.65 930.227 555.012 931.41C556.337 936.161 557.502 940.964 558.456 945.821C557.396 946.527 555.277 947.94 554.217 948.647C553.317 947.958 551.498 946.58 550.579 945.874C547.824 934.501 543.762 923.41 542.403 911.736Z"></path>
<path fill="#AE6C15" d="M395.768 913.962C404.315 909.688 417.207 915.233 416.271 925.865C411.662 926.183 408.13 923.798 405.728 920.019C403.715 919.984 401.719 919.948 399.741 919.966C399.724 921.52 399.724 923.11 399.724 924.681C406.311 929.909 416.907 935.454 414.046 945.627C409.119 957.318 387.326 952.073 388.915 938.951C393.648 938.633 397.18 941.441 400.165 944.761C401.225 944.832 403.309 944.991 404.368 945.079C404.88 944.443 405.94 943.172 406.452 942.536C406.541 941.847 406.682 940.505 406.77 939.834C402.373 936.479 397.339 933.9 393.489 929.909C388.968 925.37 390.205 917.052 395.768 913.962Z"></path>
<path fill="#B16C10" d="M511.691 916.505C514.005 916.522 516.318 916.558 518.649 916.628C518.278 925.194 513.174 932.399 510.72 940.399C508.812 945.432 510.755 950.784 511.055 955.94C508.671 956.523 506.305 957.035 503.92 957.495C502.384 952.285 503.002 946.722 501.695 941.512C497.828 935.066 493.271 929.061 489.386 922.615C489.598 921.52 490.022 919.33 490.234 918.235C498.922 917.564 501.112 927.648 505.227 933.335C507.258 927.684 509.413 922.068 511.691 916.505Z"></path>
<path fill="#AC6A12" d="M422.453 923.48C423.23 921.079 424.024 918.712 424.855 916.346C433.808 917.882 442.868 918.465 451.946 918.677C452.599 919.719 453.906 921.785 454.559 922.827C453.941 923.834 452.687 925.865 452.069 926.871C448.837 926.394 445.623 925.918 442.409 925.441C441.756 936.055 442.038 946.739 440.396 957.283C438.683 957.141 435.257 956.859 433.543 956.717C433.173 946.262 433.702 935.807 435.045 925.441C430.824 924.893 426.621 924.257 422.453 923.48Z"></path>
<path fill="#B67216" d="M461.906 957.3C461.941 944.973 461.182 932.629 461.712 920.302C463.354 920.302 466.657 920.302 468.299 920.302C470.083 930.651 470.083 941.159 470.313 951.631C476.211 951.102 482.198 950.325 488.114 951.314C488.15 953.256 488.167 955.217 488.203 957.195C479.549 958.713 470.489 959.702 461.906 957.3Z"></path>
</svg>
